<?xml version="1.0" encoding="UTF-8"?>
<svg id="Layer_2" data-name="Layer 2" xmlns="http://www.w3.org/2000/svg" viewBox="0 0 852.29 734.65">
  <defs>
    <style>
      .cls-1 {
        fill: #fff;
      }
    </style>
  </defs>
  <g id="Layer_1-2" data-name="Layer 1">
    <g>
      <path d="M852.2,511.85l-.02-2.51c.02-35.75.01-72.96,0-109.95,0-32.01-.02-63.86,0-94.45-.06-7.96-.06-15.91-.05-23.6.03-45.88.05-89.22-14.84-133.46-13.96-43.24-39.37-80.02-73.51-106.44C728.75,14.35,686.66.02,642.05,0h-.24c-.36,0-.73,0-1.09,0-29.71,0-59.87,7.09-87.3,20.57-27.74,13.63-52.05,33.47-70.3,57.37-14.23,18.24-24.63,39.27-33.81,57.82l-.14.28c-.87,1.65-1.73,3.36-2.6,5.09-3.28,6.54-6.68,13.31-11.62,18.63l-.17.18c-3.26,3.2-6.4,4.02-8.76,4.02-.45,0-.88-.03-1.27-.08-6.58-.84-10.5-7.37-13.97-13.13l-.38-.63c-2.75-4.78-5.76-10.82-9.23-17.81l-1.51-3.05c-25.63-57.46-70.31-100.42-122.58-117.87C255.72,3.82,233.06.06,210.41.06c-26.29,0-52.55,5.06-76.74,15.13C79.46,37.1,36.6,84.27,16.03,144.65-.5,191.49-.22,239.46.08,290.24c.08,13.26.16,26.97-.06,40.86.02,30.05.01,60.95,0,91.88,0,32.79-.02,65.63,0,97.66v1.7c.01,65.81.02,113.37,37.42,162.05,15.76,21.24,39.01,37.19,65.49,44.99,11.96,3.52,24.25,5.28,36.39,5.28,14.8,0,29.37-2.61,42.86-7.8l.17-.06c23.54-8.18,44.88-25.17,67.14-53.46l.18-.22c1.98-2.26,3.93-4.64,5.82-6.95,8.11-9.93,15.78-19.31,26.33-19.57.15,0,.29,0,.44,0,6.33,0,12.44,3.37,18.69,10.3,5.01,5.38,9.33,10.65,13.91,16.22,5.86,7.13,11.91,14.51,19.9,22.61,21.4,22.25,51,36.27,81.25,38.53,3.34.28,6.69.41,10.04.41,27.36,0,54.68-9.09,76.28-25.6,15.14-11.65,25.71-24.73,36.91-38.58,1.42-1.75,2.83-3.51,4.26-5.26l.23-.28c8.58-10.34,15.99-19.28,26.23-19.35h.13c6.77,0,13.22,3.87,20.31,12.17,3.8,4.28,7.59,8.87,11.6,13.73,10.42,12.62,21.2,25.67,34.23,35.66,22.29,17.71,49.78,26.37,77.22,26.37,33.78,0,67.49-13.12,91.37-38.63,48.22-50.07,47.82-111.68,47.36-183.02Z"/>
      <path class="cls-1" d="M302.3,459.33c-21.85,0-39.62-17.78-39.62-39.62s17.78-39.62,39.62-39.62,39.62,17.78,39.62,39.62-17.78,39.62-39.62,39.62Z"/>
      <path class="cls-1" d="M549.99,459.33c-21.85,0-39.62-17.78-39.62-39.62s17.78-39.62,39.62-39.62,39.63,17.78,39.63,39.62-17.78,39.62-39.63,39.62Z"/>
    </g>
  </g>
</svg>